<svg xmlns="http://www.w3.org/2000/svg" xmlns:xlink="http://www.w3.org/1999/xlink" id="Layer_1" x="0" y="0" enable-background="new 0 0 1000 1000" version="1.1" viewBox="0 0 1000 1000" xml:space="preserve"><metadata><?xpacket begin="﻿" id="W5M0MpCehiHzreSzNTczkc9d"?><?xpacket end="w"?></metadata><switch><g><g><g><g><g><g><g><g><g><g><path fill="#122436" d="M580.4,760.8h-0.6v-20h0.6c6.3,0,12.7-0.2,19-0.6l1.2,20C593.9,760.6,587.1,760.8,580.4,760.8z M559,760.1c-6.9-0.5-13.9-1.1-20.7-2l2.6-19.8c6.4,0.8,12.9,1.5,19.4,1.9L559,760.1z M621.3,758.3l-2.5-19.8 c6.4-0.8,12.9-1.9,19.3-3.1l3.8,19.6C635.1,756.3,628.2,757.4,621.3,758.3z M662.1,750.4l-5.1-19.3 c6.3-1.6,12.5-3.5,18.7-5.6l6.3,19C675.5,746.6,668.8,748.6,662.1,750.4z M701.6,737.2l-7.5-18.5c6-2.4,12-5.1,17.8-7.9 l8.7,18C714.3,731.8,708,734.6,701.6,737.2z M738.9,719.1l-9.9-17.4c5.6-3.2,11.2-6.6,16.6-10.2l11,16.7 C750.9,712,744.9,715.7,738.9,719.1z M773.7,696.3l-12-16c5.2-3.9,10.3-8,15.2-12.2l13,15.2 C784.6,687.7,779.2,692.1,773.7,696.3z M805.2,669.2l-14-14.3c4.6-4.5,9.2-9.3,13.5-14.1l14.9,13.4 C815,659.3,810.1,664.3,805.2,669.2z M833,638.2l-15.7-12.4c4-5.1,7.9-10.4,11.6-15.7l16.5,11.3 C841.4,627.2,837.3,632.8,833,638.2z M856.6,604l-17.2-10.3c3.3-5.6,6.5-11.3,9.5-17.1l17.8,9.1 C863.5,591.9,860.1,598.1,856.6,604z M875.6,566.9l-18.4-7.9c2.6-6,5-12.1,7.2-18.2l18.8,6.7 C880.9,554.1,878.3,560.6,875.6,566.9z M889.6,527.8l-19.2-5.5c1.8-6.2,3.4-12.6,4.7-18.9l19.5,4.2 C893.2,514.3,891.5,521.1,889.6,527.8z M898.3,487.1l-19.8-2.9c1-6.4,1.7-12.9,2.2-19.4l19.9,1.7 C900.2,473.3,899.4,480.3,898.3,487.1z M901.8,445.7l-20-0.4c0-2,0.1-4,0.1-5.9c0-4.5-0.1-9.1-0.3-13.6l20-0.9 c0.2,4.8,0.3,9.7,0.3,14.5C901.9,441.5,901.8,443.6,901.8,445.7z M880.1,406.3c-0.7-6.4-1.6-12.9-2.7-19.3l19.7-3.4 c1.2,6.8,2.2,13.7,2.9,20.6L880.1,406.3z M873.4,367.9c-1.5-6.3-3.3-12.6-5.2-18.8l19.1-6c2.1,6.6,3.9,13.3,5.6,20 L873.4,367.9z M861.7,330.7c-2.3-6-4.9-12.1-7.6-17.9l18.1-8.4c2.9,6.3,5.6,12.7,8.1,19.1L861.7,330.7z M845.4,295.4 c-3.1-5.7-6.4-11.3-9.9-16.8l16.9-10.7c3.7,5.8,7.2,11.9,10.5,17.9L845.4,295.4z M824.5,262.5c-3.8-5.2-7.8-10.4-12-15.4 l15.4-12.8c4.4,5.3,8.7,10.8,12.7,16.4L824.5,262.5z M799.7,232.5c-4.4-4.7-9.1-9.3-13.8-13.8l13.6-14.6 c5.1,4.7,10,9.6,14.8,14.7L799.7,232.5z M771.1,205.9c-5-4.1-10.2-8.1-15.5-11.9l11.6-16.3c5.6,4,11.2,8.3,16.5,12.6 L771.1,205.9z M739.4,183.2c-5.5-3.4-11.2-6.7-16.9-9.8l9.4-17.6c6.1,3.3,12.1,6.8,18,10.4L739.4,183.2z M424.1,181.5 l-10.4-17.1c5.9-3.6,12-7,18.1-10.2l9.3,17.7C435.4,174.9,429.7,178.1,424.1,181.5z M705,164.8c-5.9-2.7-12-5.2-18-7.5 l7.1-18.7c6.5,2.4,12.9,5.1,19.2,8L705,164.8z M458.7,163.4l-8.1-18.3c6.3-2.8,12.8-5.4,19.3-7.8l6.9,18.8 C470.7,158.4,464.7,160.8,458.7,163.4z M668.5,151c-6.2-1.9-12.5-3.6-18.8-5.1l4.6-19.5c6.7,1.6,13.5,3.4,20.1,5.4 L668.5,151z M495.3,150l-5.6-19.2c6.6-1.9,13.4-3.7,20.1-5.2l4.4,19.5C507.9,146.6,501.5,148.2,495.3,150z M630.5,142 c-6.4-1.1-12.9-1.9-19.3-2.6l2-19.9c6.9,0.7,13.8,1.6,20.6,2.8L630.5,142z M533.4,141.5l-3.1-19.8 c6.8-1.1,13.8-1.9,20.6-2.5l1.8,19.9C546.3,139.7,539.8,140.5,533.4,141.5z M591.7,138.1c-3.7-0.1-7.6-0.2-11.3-0.2 c-2.7,0-5.5,0-8.2,0.1l-0.5-20c2.9-0.1,5.8-0.1,8.7-0.1c4,0,8.1,0.1,12.1,0.2L591.7,138.1z"/></g></g></g></g></g></g></g></g><g><g><g><g><g><g><g><path fill="#122436" d="M417,888.7c-0.6,0-1.3,0-1.9,0c-3.9,0-7.9-0.2-11.8-0.5l1.6-19.9c3.5,0.3,7,0.4,10.5,0.5 c2.8,0,5.5,0,8.3-0.1l0.8,20C421.9,888.7,419.4,888.7,417,888.7z M445.5,886.4l-3.3-19.7c6.2-1,12.3-2.5,18.3-4.2 l5.7,19.2C459.4,883.6,452.5,885.2,445.5,886.4z M382.2,885.2c-6.9-1.4-13.8-3.3-20.5-5.5l6.4-18.9c5.9,2,12,3.6,18.1,4.9 L382.2,885.2z M486.1,874.3l-8-18.3c5.7-2.5,11.3-5.4,16.7-8.6l10.2,17.2C498.9,868.2,492.5,871.4,486.1,874.3z M342.1,871.6c-6.3-3.1-12.6-6.6-18.5-10.4l10.9-16.8c5.2,3.4,10.7,6.5,16.3,9.2L342.1,871.6z M522.5,852.6l-12.3-15.8 c4.9-3.8,9.7-8,14.1-12.4l14.1,14.2C533.4,843.5,528,848.3,522.5,852.6z M306.5,848.6c-5.4-4.5-10.6-9.4-15.4-14.6 l14.6-13.6c4.3,4.6,8.8,8.9,13.6,12.9L306.5,848.6z M552.5,822.7l-15.7-12.3c3.8-4.9,7.4-10.1,10.6-15.4l17.1,10.3 C560.9,811.3,556.8,817.2,552.5,822.7z M277.6,817.7c-4.1-5.7-8-11.7-11.4-17.9l17.5-9.7c3,5.5,6.4,10.8,10.1,15.8 L277.6,817.7z M574.3,786.4l-18.3-8.1c2.5-5.7,4.7-11.6,6.5-17.6l19.1,5.8C579.6,773.3,577.2,779.9,574.3,786.4z M257.1,780.6c-2.6-6.6-4.9-13.3-6.7-20.2l19.3-5.1c1.6,6,3.6,12,5.9,17.8L257.1,780.6z M246.4,739.6 c-0.9-7-1.4-14.1-1.5-21.1l20-0.2c0.1,6.3,0.5,12.5,1.3,18.7L246.4,739.6z M265.8,699.5l-19.9-2.2 c0.7-6.6,1.9-13.3,3.4-19.8l19.5,4.5C267.5,687.8,266.5,693.7,265.8,699.5z"/></g></g></g></g></g></g></g><g><g><g><g><g><g><g><path fill="#122436" d="M255.6,429.5l-0.3,0c-7.2-0.1-14.5-0.6-21.6-1.7l2.9-19.8c6.2,0.9,12.6,1.4,18.9,1.5l0.3,0 L255.6,429.5z M277.2,428.2l-2.5-19.8c6.3-0.8,12.5-2,18.6-3.7l5.2,19.3C291.6,425.9,284.4,427.3,277.2,428.2z M212.4,423.2c-6.9-2-13.8-4.5-20.4-7.5l8.2-18.3c5.8,2.6,11.8,4.8,17.8,6.6L212.4,423.2z M319.1,416.9l-7.8-18.4 c5.8-2.5,11.5-5.3,16.9-8.6l10.2,17.2C332.2,410.8,325.7,414.1,319.1,416.9z M172.8,405.5c-6.1-3.8-12-8.1-17.6-12.7 l12.8-15.4c4.9,4,10,7.8,15.4,11.1L172.8,405.5z M356.3,394.8l-12.5-15.6c4.9-3.9,9.6-8.3,14-12.8l14.5,13.8 C367.3,385.3,361.9,390.3,356.3,394.8z M139.5,377.7c-4.9-5.3-9.4-11-13.5-17l16.5-11.4c3.6,5.2,7.6,10.2,11.8,14.9 L139.5,377.7z M386.1,363.4l-16.2-11.7c3.7-5.1,7.1-10.5,10-16.1l17.7,9.4C394.2,351.3,390.4,357.5,386.1,363.4z M114.9,342.1c-3.3-6.5-6.1-13.2-8.5-20l18.9-6.5c2,6,4.5,11.8,7.4,17.5L114.9,342.1z M406.5,325.1l-18.8-6.9 c2.2-5.9,3.9-12.1,5.3-18.2l19.5,4.2C411,311.3,408.9,318.3,406.5,325.1z M100.8,301.1c-1.4-7.1-2.3-14.3-2.7-21.5l20-1.1 c0.4,6.3,1.2,12.7,2.4,18.8L100.8,301.1z M415.6,282.7l-19.9-1.5c0.2-3.1,0.4-6.2,0.4-9.3c0-0.5,0-1,0-1.6 c0-2.7-0.1-5.5-0.2-8.2l20-1.2c0.2,3.1,0.3,6.2,0.3,9.3c0,0.6,0,1.2,0,1.8C416.1,275.7,415.9,279.2,415.6,282.7z M118.3,259.4l-19.9-1.6c0.6-7.2,1.6-14.4,3.2-21.5l19.5,4.3C119.7,246.8,118.8,253.1,118.3,259.4z M393.5,243.4 c-1.2-6.2-2.9-12.4-4.9-18.3l18.9-6.5c2.4,6.8,4.3,13.9,5.6,21L393.5,243.4z M126.4,222.4l-18.8-6.9 c2.5-6.8,5.5-13.5,8.9-19.8l17.7,9.4C131.1,210.7,128.5,216.5,126.4,222.4z M381.2,207.6c-2.9-5.6-6.1-11.1-9.7-16.3 l16.4-11.4c4.1,5.9,7.9,12.2,11.1,18.6L381.2,207.6z M144.2,189L128,177.3c4.2-5.8,8.9-11.5,13.9-16.7l14.5,13.8 C151.9,179,147.9,183.9,144.2,189z M359.6,176.4c-4.3-4.7-8.9-9.1-13.7-13.1l12.8-15.4c5.6,4.6,10.8,9.7,15.7,15 L359.6,176.4z M170.3,161.6l-12.5-15.6c5.6-4.5,11.6-8.7,17.8-12.3l10.2,17.2C180.5,154,175.3,157.6,170.3,161.6z M330.5,152.2c-5.4-3.3-11-6.3-16.8-8.9l8.2-18.3c6.6,2.9,13,6.4,19.2,10.2L330.5,152.2z M202.9,142.2l-7.8-18.4 c6.7-2.8,13.6-5.2,20.5-7.1l5.2,19.3C214.7,137.7,208.7,139.7,202.9,142.2z M295.9,136.8c-6-1.8-12.3-3.1-18.5-4l2.9-19.8 c7.2,1,14.3,2.6,21.2,4.6L295.9,136.8z M239.4,132.4l-2.5-19.8c7.1-0.9,14.4-1.3,21.7-1.2l-0.2,20 C252,131.2,245.7,131.6,239.4,132.4z"/></g></g></g></g></g></g></g><g><g><g><g><g><g><g><g><path fill="#FFCD35" d="M269,343.1l18.5,22.1c2.8,3.4,7.6,4.3,11.5,2.1l19.2-10.8c3.8-2.2,5.6-6.7,4.2-10.9l-9.3-27.3 c5.5-6.4,10-13.9,13-22l28.4-4.9c4.3-0.8,7.5-4.5,7.6-8.9l0.2-22c0-4.4-3-8.2-7.4-9l-28.3-5.6 c-2.9-8.2-7.1-15.7-12.5-22.2l9.9-27.1c1.5-4.1-0.1-8.7-3.9-11l-19-11.2c-3.8-2.2-8.6-1.5-11.5,1.9l-19,21.7 c-4.1-0.8-8.4-1.2-12.8-1.2c-4.4,0-8.6,0.3-12.8,1l-18.5-22.1c-2.8-3.4-7.6-4.3-11.5-2.1l-19.2,10.8 c-3.8,2.2-5.6,6.7-4.2,10.9l9.3,27.3c-5.5,6.4-10,13.9-13,22l-28.4,4.9c-4.3,0.8-7.5,4.5-7.6,8.9l-0.2,22 c0,4.4,3,8.2,7.4,9l28.3,5.6c2.9,8.2,7.1,15.7,12.5,22.2l-9.9,27.1c-1.5,4.1,0.1,8.7,3.9,11l19,11.2 c3.8,2.2,8.6,1.5,11.5-1.9l19-21.7c4.1,0.8,8.4,1.2,12.8,1.2C260.5,344.1,264.8,343.8,269,343.1z M256.6,307.2 c-20.3-0.2-36.7-16.9-36.4-37.2c0.2-20.3,16.9-36.7,37.2-36.4c20.3,0.2,36.7,16.9,36.4,37.2 C293.6,291.1,276.9,307.5,256.6,307.2z"/></g></g></g></g></g></g></g><g><g><g><g><g><g><g><ellipse cx="257" cy="270.4" fill="#FFF" rx="36.8" ry="36.8" transform="matrix(1.093490e-002 -0.9999 0.9999 1.093490e-002 -16.1948 524.414)"/></g></g></g></g></g></g></g><g><g><g><g><g><g><g><path fill="#122436" d="M294.5,378.5c-5.5,0-10.9-2.4-14.7-6.9l-15-17.9c-2.9,0.3-5.8,0.4-8.7,0.4 c-2.9,0-5.8-0.2-8.7-0.5L232,371.1c-6.1,6.9-16.2,8.6-24.1,3.9l-19-11.2c-7.9-4.7-11.4-14.4-8.2-23l8-21.9 c-3.4-4.8-6.2-9.8-8.6-15.2l-22.9-4.5c-9-1.8-15.5-9.8-15.4-19l0.2-22c0.1-9.2,6.8-17,15.8-18.6l23-4 c2.4-5.3,5.4-10.3,8.9-15l-7.6-22.1c-3-8.7,0.7-18.3,8.7-22.8l19.2-10.8c8-4.5,18.1-2.7,24.1,4.4l15,17.9 c2.9-0.3,5.8-0.4,8.7-0.4c2.9,0,5.8,0.2,8.7,0.5l15.4-17.6c6.1-6.9,16.2-8.6,24.1-3.9l19,11.2c7.9,4.7,11.4,14.4,8.2,23 l-8,21.9c3.4,4.8,6.2,9.8,8.6,15.2l22.9,4.5c9,1.8,15.5,9.8,15.4,19l-0.2,22c-0.1,9.2-6.8,17-15.8,18.6l-23,4 c-2.4,5.3-5.4,10.3-8.9,15l7.6,22.1c3,8.7-0.7,18.3-8.7,22.8l-19.2,10.8C300.9,377.7,297.7,378.5,294.5,378.5z M273,332.3l21.7,26l17.9-10.1l-10.9-32l3.7-4.3c4.9-5.7,8.6-12,11.3-19l2-5.3l33.3-5.8l0.2-20.6l-33.2-6.5l-1.9-5.4 c-2.5-7-6.1-13.4-10.8-19.2l-3.6-4.4l11.6-31.8l-17.7-10.5l-22.2,25.5l-5.6-1c-3.6-0.7-7.3-1-11-1.1 c-3.7,0-7.4,0.2-11.1,0.8l-5.6,0.9l-21.7-26l-17.9,10.1l11,32l-3.7,4.3c-4.9,5.7-8.6,12-11.3,19l-2,5.3l-33.3,5.8 l-0.2,20.6l33.2,6.5l1.9,5.4c2.5,7,6.1,13.4,10.8,19.2l3.6,4.4l-11.6,31.8l17.7,10.5l22.2-25.5l5.6,1 c3.6,0.7,7.3,1,11,1.1c3.7,0,7.4-0.2,11.1-0.8L273,332.3z M257,317.2c-0.2,0-0.4,0-0.5,0c-25.8-0.3-46.6-21.5-46.3-47.3 c0.1-12.5,5.1-24.2,14.1-33c8.9-8.8,20.8-13.5,33.3-13.4c12.5,0.1,24.2,5.1,33,14.1c8.7,8.9,13.5,20.8,13.4,33.3 c-0.1,12.5-5.1,24.2-14.1,33C280.9,312.5,269.3,317.2,257,317.2z M256.7,297.2c7.2,0.1,13.9-2.6,19.1-7.7 c5.1-5,8-11.7,8.1-18.9c0.1-7.2-2.6-13.9-7.7-19.1c-5-5.1-11.7-8-18.9-8.1c-7.2,0-13.9,2.6-19.1,7.7 c-5.1,5-8,11.7-8.1,18.9C230,284.9,241.9,297.1,256.7,297.2z"/></g></g></g></g></g></g></g></g><g><g><g><g><g><g><g><g><path fill="#4EA4DB" d="M428.9,789.4l18.5,22.1c2.8,3.4,7.6,4.3,11.5,2.1l19.2-10.8c3.8-2.2,5.6-6.7,4.2-10.9l-9.3-27.3 c5.5-6.4,10-13.9,13-22l28.4-4.9c4.3-0.8,7.5-4.5,7.6-8.9l0.2-22c0-4.4-3-8.2-7.4-9l-28.3-5.6 c-2.9-8.2-7.1-15.7-12.5-22.2l9.9-27.1c1.5-4.1-0.1-8.7-3.9-11l-19-11.2c-3.8-2.2-8.6-1.5-11.5,1.9l-19,21.7 c-4.1-0.8-8.4-1.2-12.8-1.2c-4.4,0-8.6,0.3-12.8,1l-18.5-22.1c-2.8-3.4-7.6-4.3-11.5-2.1l-19.2,10.8 c-3.8,2.2-5.6,6.7-4.2,10.9l9.3,27.3c-5.5,6.4-10,13.9-13,22l-28.4,4.9c-4.3,0.8-7.5,4.5-7.6,8.9l-0.2,22 c0,4.4,3,8.2,7.4,9l28.3,5.6c2.9,8.2,7.1,15.7,12.5,22.2l-9.9,27.1c-1.5,4.1,0.1,8.7,3.9,11l19,11.2 c3.8,2.2,8.6,1.5,11.5-1.9l19-21.7c4.1,0.8,8.4,1.2,12.8,1.2C420.5,790.4,424.8,790,428.9,789.4z M416.5,753.5 c-20.3-0.2-36.7-16.9-36.4-37.2c0.2-20.3,16.9-36.7,37.2-36.4c20.3,0.2,36.7,16.9,36.4,37.2 C453.6,737.4,436.9,753.7,416.5,753.5z"/></g></g></g></g></g></g></g><g><g><g><g><g><g><g><ellipse cx="416.9" cy="716.6" fill="#FFF" rx="36.8" ry="36.8" transform="matrix(1.093492e-002 -0.9999 0.9999 1.093492e-002 -304.2186 1125.7159)"/></g></g></g></g></g></g></g><g><g><g><g><g><g><g><path fill="#122436" d="M454.4,824.8c-5.5,0-10.9-2.4-14.7-6.9l-15-17.9c-2.9,0.3-5.8,0.4-8.7,0.4 c-2.9,0-5.8-0.2-8.7-0.5L392,817.4c-6.1,6.9-16.2,8.6-24.1,3.9l-19-11.2c-7.9-4.7-11.4-14.4-8.2-23l8-21.9 c-3.4-4.8-6.2-9.8-8.6-15.2l-22.9-4.5c-9-1.8-15.5-9.8-15.4-19l0.2-22c0.1-9.2,6.8-17,15.8-18.6l23-4 c2.4-5.3,5.4-10.3,8.9-15l-7.6-22.1c-3-8.7,0.7-18.3,8.7-22.8l19.2-10.8c8-4.5,18.1-2.7,24.1,4.4l15,17.9 c2.9-0.3,5.8-0.4,8.7-0.4c2.9,0,5.8,0.2,8.7,0.5l15.4-17.6c6.1-6.9,16.2-8.6,24.1-3.9l19,11.2c7.9,4.7,11.4,14.4,8.2,23 l-8,21.9c3.4,4.8,6.2,9.8,8.6,15.2l22.9,4.5c9,1.8,15.5,9.8,15.4,19l-0.2,22c-0.1,9.2-6.8,17-15.8,18.6l-23,4 c-2.4,5.3-5.4,10.3-8.9,15l7.6,22.1c3,8.7-0.7,18.3-8.7,22.8l-19.2,10.8C460.8,824,457.6,824.8,454.4,824.8z M432.9,778.6l21.7,26l17.9-10.1l-10.9-32l3.7-4.3c4.9-5.7,8.6-12,11.3-19l2-5.3l33.3-5.8l0.2-20.6l-33.2-6.5l-1.9-5.4 c-2.5-7-6.1-13.4-10.8-19.2l-3.6-4.4l11.6-31.8l-17.7-10.5l-22.2,25.5l-5.6-1c-3.6-0.7-7.3-1-11-1.1 c-3.7,0-7.4,0.2-11.1,0.8l-5.6,0.9l-21.7-26l-17.9,10.1l10.9,32l-3.7,4.3c-4.9,5.7-8.6,12-11.3,19l-2,5.3l-33.3,5.8 l-0.2,20.6l33.2,6.5l1.9,5.4c2.5,7,6.1,13.4,10.8,19.2l3.6,4.4l-11.6,31.8l17.7,10.5l22.2-25.5l5.6,1 c3.6,0.7,7.3,1,11,1.1c3.7,0,7.4-0.2,11.1-0.8L432.9,778.6z M417,763.5c-0.2,0-0.4,0-0.5,0 c-25.8-0.3-46.6-21.5-46.3-47.3c0.1-12.5,5.1-24.2,14.1-33c8.9-8.7,20.7-13.5,33.3-13.4c25.8,0.3,46.6,21.5,46.3,47.3 c-0.1,12.5-5.1,24.2-14.1,33C440.9,758.7,429.3,763.5,417,763.5z M416.6,743.5c7.2,0.1,13.9-2.6,19.1-7.7 c5.1-5,8-11.7,8.1-18.9c0.2-14.8-11.7-27-26.5-27.1c-7.2-0.1-13.9,2.6-19.1,7.7c-5.1,5-8,11.7-8.1,18.9 C389.9,731.1,401.8,743.3,416.6,743.5z"/></g></g></g></g></g></g></g></g><g><g><g><g><g><g><g><g><path fill="#FFCD35" d="M744.3,410.5l49.5-42.3c7.5-6.4,9.4-17.4,4.5-26l-24.9-43.1c-5-8.6-15.4-12.4-24.7-9.1 l-61.4,21.8c-14.7-12.3-31.5-22.2-49.9-28.9l-11.9-64c-1.8-9.8-10.3-16.8-20.2-16.8h-49.8c-9.9,0-18.4,7.1-20.2,16.8 l-11.9,64c-18.4,6.7-35.2,16.5-49.9,28.9l-61.4-21.8c-9.4-3.3-19.7,0.5-24.7,9.1l-24.9,43.1c-5,8.6-3.1,19.5,4.5,26 l49.5,42.3c-1.6,9.4-2.5,19-2.5,28.8c0,9.8,0.9,19.5,2.5,28.8L367,510.5c-7.5,6.4-9.4,17.4-4.5,26l24.9,43.1 c5,8.6,15.4,12.4,24.7,9.1l61.4-21.8c14.7,12.3,31.5,22.2,49.9,28.9l11.9,64c1.8,9.8,10.3,16.8,20.2,16.8h49.8 c9.9,0,18.4-7.1,20.2-16.8l11.9-64c18.4-6.7,35.2-16.5,49.9-28.9l61.4,21.8c9.4,3.3,19.7-0.5,24.7-9.1l24.9-43.1 c5-8.6,3.1-19.5-4.5-26l-49.5-42.3c1.6-9.4,2.5-19,2.5-28.8C746.8,429.5,745.9,419.9,744.3,410.5z M663.6,439.4 c0,45.9-37.2,83.2-83.2,83.2c-45.9,0-83.2-37.2-83.2-83.2c0-45.9,37.2-83.2,83.2-83.2 C626.3,356.2,663.6,393.4,663.6,439.4z"/></g></g></g></g></g></g></g><g><g><g><g><g><g><g><path fill="#FFF" d="M580.3,564.8c-1,0-2,0-2.9,0l0.5-20c0.9,0,1.7,0,2.6,0c5.3,0,10.5-0.4,15.7-1.2l2.9,19.8 C592.8,564.3,586.5,564.8,580.3,564.8z M555.8,562.4c-7.1-1.4-14.1-3.5-20.8-6.1l7.2-18.6c5.7,2.2,11.5,3.9,17.5,5.1 L555.8,562.4z M620.1,558.4l-6.3-19c5.8-1.9,11.4-4.4,16.7-7.3l9.5,17.6C633.7,553.2,626.9,556.1,620.1,558.4z M515.5,546.7c-6.2-3.7-12.1-8-17.5-12.8l13.1-15.1c4.6,4,9.5,7.6,14.7,10.8L515.5,546.7z M658.1,537.8l-12.4-15.7 c4.8-3.8,9.2-8,13.3-12.5l14.9,13.3C669.1,528.3,663.8,533.3,658.1,537.8z M482.9,518.3c-4.6-5.6-8.6-11.7-12.2-18 l17.5-9.7c3,5.3,6.4,10.4,10.2,15.1L482.9,518.3z M686.9,505.6L670,495c3.2-5.2,6-10.6,8.3-16.3l18.5,7.5 C694.1,492.9,690.8,499.4,686.9,505.6z M461.9,480.5c-2.4-6.8-4.2-13.9-5.3-21.1l19.7-3.2c1,6,2.5,11.9,4.5,17.7 L461.9,480.5z M703.1,465.5l-19.6-4.1c1.3-5.9,2-12,2.2-18.1l20,0.7C705.5,451.2,704.6,458.4,703.1,465.5z M475,438.1 l-20-0.2c0.1-7.2,0.8-14.5,2.1-21.6l19.7,3.7C475.6,425.9,475,432,475,438.1z M684.9,425c-0.8-6-2.2-12-4-17.8l19-6.1 c2.2,6.9,3.8,14,4.8,21.2L684.9,425z M481.6,402.4l-18.7-7c2.5-6.8,5.7-13.3,9.4-19.6l17.2,10.2 C486.4,391.1,483.8,396.7,481.6,402.4z M673.8,390.4c-2.8-5.4-6.1-10.5-9.9-15.4l15.8-12.2c4.4,5.7,8.4,11.9,11.7,18.3 L673.8,390.4z M500.1,371.1l-15.2-13c4.7-5.5,9.9-10.6,15.4-15.2l12.8,15.4C508.4,362.1,504,366.4,500.1,371.1z M651.6,361.6c-4.5-4.1-9.4-7.8-14.5-11.1l10.8-16.8c6.1,3.9,11.9,8.3,17.2,13.2L651.6,361.6z M528,347.8l-9.9-17.4 c6.3-3.6,12.9-6.7,19.7-9.1l6.8,18.8C538.9,342.2,533.3,344.8,528,347.8z M621,342c-5.6-2.3-11.4-4.2-17.4-5.5L608,317 c7.1,1.6,14,3.8,20.7,6.6L621,342z M562.2,335.5l-3.4-19.7c9.1-1.6,18.5-2.2,27.7-1.7l-1,20 C577.8,333.7,569.8,334.2,562.2,335.5z"/></g></g></g></g></g></g></g><g><g><g><g><g><g><g><g><path fill="#FFF" d="M428.2,582.9l-16.1,5.7c-9.4,3.3-19.7-0.5-24.7-9.1l-24.9-43.1c-5-8.6-3.1-19.5,4.5-26l13-11.1 C389.4,531,406.1,559.5,428.2,582.9z"/></g></g></g></g></g></g></g><g><g><g><g><g><g><g><path fill="#FFF" d="M580.4,648.6c16.6,0,32.7-1.9,48.2-5.6l-3.1,16.8c-1.8,9.8-10.3,16.8-20.2,16.8h-49.8 c-9.9,0-18.4-7.1-20.2-16.8l-3.1-16.8C547.6,646.6,563.8,648.6,580.4,648.6z"/></g></g></g></g></g></g></g><g><g><g><g><g><g><g><path fill="#FFF" d="M780.9,499.4l13,11.1c7.5,6.4,9.4,17.4,4.5,26l-24.9,43.1c-5,8.6-15.4,12.4-24.7,9.1l-16.1-5.7 C754.7,559.5,771.4,531,780.9,499.4z"/></g></g></g></g></g></g></g><g><g><g><g><g><g><g><path fill="#FFF" d="M379.9,379.3l-13-11.1c-7.5-6.4-9.4-17.4-4.5-26l24.9-43.1c5-8.6,15.4-12.4,24.7-9.1l16.1,5.7 C406.1,319.2,389.4,347.7,379.9,379.3z"/></g></g></g></g></g></g></g><g><g><g><g><g><g><g><path fill="#FFF" d="M732.6,295.8l16.1-5.7c9.4-3.3,19.7,0.5,24.7,9.1l24.9,43.1c5,8.6,3.1,19.5-4.5,26l-13,11.1 C771.4,347.7,754.7,319.2,732.6,295.8z"/></g></g></g></g></g></g></g><g><g><g><g><g><g><g><path fill="#FFF" d="M580.4,230.1c-16.6,0-32.7,1.9-48.2,5.6l3.1-16.8c1.8-9.8,10.3-16.8,20.2-16.8h49.8 c9.9,0,18.4,7.1,20.2,16.8l3.1,16.8C613.1,232.1,597,230.1,580.4,230.1z"/></g></g></g></g></g></g></g></g><g><g><g><g><g><g><g><path fill="#122436" d="M605.3,686.6h-49.8c-14.7,0-27.4-10.5-30.1-25l-10.8-58.5c-15.4-6.2-29.9-14.6-43-24.9 l-56.1,19.9c-13.9,4.9-29.3-0.8-36.7-13.5l-24.9-43.1c-7.4-12.8-4.6-29,6.6-38.6l45.3-38.7c-1.2-8.2-1.7-16.6-1.7-24.9 c0-8.3,0.6-16.6,1.7-24.9l-45.3-38.7c-11.2-9.6-14-25.8-6.6-38.6l24.9-43.1c7.4-12.8,22.8-18.5,36.7-13.5l56.1,19.9 c13.2-10.3,27.6-18.7,43-24.9l10.8-58.5c2.7-14.5,15.3-25,30.1-25h49.8c14.7,0,27.4,10.5,30.1,25l10.8,58.5 c15.4,6.2,29.9,14.6,43,24.9l56.1-19.9c13.9-4.9,29.3,0.8,36.7,13.5l24.9,43.1c7.4,12.8,4.6,29-6.6,38.6L755,414.5 c1.2,8.2,1.7,16.6,1.7,24.9c0,8.3-0.6,16.6-1.7,24.9l45.3,38.7c11.2,9.6,14,25.8,6.6,38.6l-24.9,43.1 c-7.4,12.8-22.8,18.5-36.7,13.5l-56.1-19.9c-13.2,10.3-27.6,18.7-43,24.9l-10.8,58.5C632.7,676.1,620,686.6,605.3,686.6z M475.6,555.5l4.4,3.7c14,11.8,29.8,20.9,46.9,27.1l5.4,2l12.9,69.6c0.9,5,5.3,8.7,10.4,8.7h49.8c5.1,0,9.5-3.6,10.4-8.7 l12.9-69.6l5.4-2c17.1-6.2,32.9-15.4,46.9-27.1l4.4-3.7l66.8,23.7c4.8,1.7,10.2-0.3,12.7-4.7l24.9-43.1 c2.6-4.4,1.6-10-2.3-13.4l-53.9-46l1-5.6c1.6-8.9,2.3-18,2.3-27.1c0-9.1-0.8-18.2-2.3-27.1l-1-5.6l53.9-46 c3.9-3.3,4.8-8.9,2.3-13.4l-24.9-43.1c-2.6-4.4-7.9-6.4-12.7-4.7l-66.8,23.7l-4.4-3.7c-14-11.8-29.8-20.9-46.9-27.1 l-5.4-2l-12.9-69.6c-0.9-5-5.3-8.7-10.4-8.7h-49.8c-5.1,0-9.5,3.6-10.4,8.7l-12.9,69.6l-5.4,2 c-17.1,6.2-32.9,15.4-46.9,27.1l-4.4,3.7l-66.8-23.7c-4.8-1.7-10.2,0.3-12.7,4.7l-24.9,43.1c-2.6,4.4-1.6,10,2.3,13.4 l53.9,46l-1,5.6c-1.6,8.9-2.3,18-2.3,27.1c0,9.1,0.8,18.2,2.3,27.1l1,5.6l-53.9,46c-3.9,3.3-4.8,8.9-2.3,13.4l24.9,43.1 c2.6,4.4,7.9,6.4,12.7,4.7L475.6,555.5z M580.4,532.6c-51.4,0-93.2-41.8-93.2-93.2c0-51.4,41.8-93.2,93.2-93.2 c51.4,0,93.2,41.8,93.2,93.2C673.6,490.8,631.8,532.6,580.4,532.6z M580.4,366.2c-40.4,0-73.2,32.8-73.2,73.2 c0,40.4,32.8,73.2,73.2,73.2c40.4,0,73.2-32.8,73.2-73.2C653.6,399,620.8,366.2,580.4,366.2z"/></g></g></g></g></g></g></g></g><g><g><g><g><g><g><g><g><path fill="#FFCD35" d="M373.9,676.6H140c-13.8,0-25-11.2-25-25V489.8c0-13.8,11.2-25,25-25h233.9c13.8,0,25,11.2,25,25 v161.8C398.9,665.4,387.7,676.6,373.9,676.6z"/></g></g></g></g></g></g></g><g><g><g><g><g><g><g><path fill="#FFF" d="M376.6,464.8H137.4c-12.3,0-22.3,10-22.3,22.3v27c0-12.3,10-22.3,22.3-22.3h239.2 c12.3,0,22.3,10,22.3,22.3v-27C398.9,474.8,388.9,464.8,376.6,464.8z"/></g></g></g></g></g></g></g><g><g><g><g><g><g><g><path fill="#FFF" d="M142.5,656.8h229.1c4.9,0,8.9-4,8.9-8.9v-34c0,10.7-8.7,19.4-19.4,19.4H153 c-10.7,0-19.4-8.7-19.4-19.4v34C133.5,652.8,137.5,656.8,142.5,656.8z"/></g></g></g></g></g></g></g><g><g><g><g><g><g><g><path fill="#122436" d="M373.9,686.6H140c-19.3,0-35-15.7-35-35V489.8c0-19.3,15.7-35,35-35h233.9c19.3,0,35,15.7,35,35 v161.8C408.9,670.9,393.2,686.6,373.9,686.6z M140,474.8c-8.3,0-15,6.7-15,15v161.8c0,8.3,6.7,15,15,15h233.9 c8.3,0,15-6.7,15-15V489.8c0-8.3-6.7-15-15-15H140z"/></g></g></g></g></g></g></g><g><g><g><g><g><g><g><path fill="#122436" d="M373.9,580.7H140c-19.3,0-35-15.7-35-35v-55.9c0-19.3,15.7-35,35-35h233.9c19.3,0,35,15.7,35,35 v55.9C408.9,565,393.2,580.7,373.9,580.7z M140,474.8c-8.3,0-15,6.7-15,15v55.9c0,8.3,6.7,15,15,15h233.9 c8.3,0,15-6.7,15-15v-55.9c0-8.3-6.7-15-15-15H140z"/></g></g></g></g></g></g></g><g><g><g><g><g><g><g><g><path fill="#FFCD35" d="M326.1,464.8h-35.7v-27.7c0-2.5-2-4.5-4.5-4.5h-57.8c-2.5,0-4.5,2-4.5,4.5v27.7h-35.7v-27.7 c0-22.2,18-40.2,40.2-40.2h57.8c22.2,0,40.2,18,40.2,40.2V464.8z"/></g></g></g></g></g></g></g></g><g><g><g><g><g><g><g><path fill="#FFF" d="M285.9,396.9h-57.8c-22.2,0-40.2,18-40.2,40.2v15.6c0-22.2,18-40.2,40.2-40.2h57.8 c22.2,0,40.2,18,40.2,40.2v-15.6C326.1,414.9,308.1,396.9,285.9,396.9z"/></g></g></g></g></g></g></g><g><g><g><g><g><g><g><g><path fill="#122436" d="M336.1,474.8h-55.7v-32.2h-46.7v32.2h-55.7v-37.7c0-27.7,22.5-50.2,50.2-50.2h57.8 c27.7,0,50.2,22.5,50.2,50.2V474.8z M300.4,454.8h15.7v-17.7c0-16.7-13.6-30.2-30.2-30.2h-57.8 c-16.7,0-30.2,13.6-30.2,30.2v17.7h15.7v-17.7c0-8,6.5-14.5,14.5-14.5h57.8c8,0,14.5,6.5,14.5,14.5V454.8z"/></g></g></g></g></g></g></g></g><g><g><g><g><g><g><g><g><circle cx="371.2" cy="542.6" r="8.9" fill="#122436"/></g></g></g></g></g></g></g><g><g><g><g><g><g><g><circle cx="142.8" cy="542.6" r="8.9" fill="#122436"/></g></g></g></g></g></g></g></g><g><g><g><g><g><g><g><path fill="#4EA4DB" d="M276.3,597.7h-38.6c-11.5,0-20.9-9.4-20.9-20.9v-1.3c0-11.5,9.4-20.9,20.9-20.9h38.6 c11.5,0,20.9,9.4,20.9,20.9v1.3C297.2,588.4,287.9,597.7,276.3,597.7z"/></g></g></g></g></g></g></g><g><g><g><g><g><g><g><path fill="#FFF" d="M275.6,554.6h-37.3c-11.9,0-21.6,9.7-21.6,21.6l0,0c0,3.3,0.7,6.4,2.1,9.2 c3.5-7.3,10.9-12.3,19.5-12.3h37.3c8.6,0,16,5,19.5,12.3c1.3-2.8,2.1-5.9,2.1-9.2l0,0 C297.2,564.3,287.6,554.6,275.6,554.6z"/></g></g></g></g></g></g></g><g><g><g><g><g><g><g><path fill="#122436" d="M276.3,607.7h-38.6c-17,0-30.9-13.9-30.9-30.9v-1.3c0-17,13.9-30.9,30.9-30.9h38.6 c17,0,30.9,13.9,30.9,30.9v1.3C307.2,593.9,293.3,607.7,276.3,607.7z M237.7,564.6c-6,0-10.9,4.9-10.9,10.9v1.3 c0,6,4.9,10.9,10.9,10.9h38.6c6,0,10.9-4.9,10.9-10.9v-1.3c0-6-4.9-10.9-10.9-10.9H237.7z"/></g></g></g></g></g></g></g></g></g></g></switch></svg>