<svg xmlns="http://www.w3.org/2000/svg" xmlns:xlink="http://www.w3.org/1999/xlink" width="655.359" height="655.359" xml:space="preserve" style="shape-rendering:geometricPrecision;text-rendering:geometricPrecision;image-rendering:optimizeQuality;fill-rule:evenodd;clip-rule:evenodd" viewBox="0 0 6.827 6.827"><defs><style type="text/css">.fil0{fill:#42a5f5}.fil1{fill:#fffffe}</style></defs><g id="Layer_x0020_1"><metadata id="CorelCorpID_0Corel-Layer"/><rect width="6.827" height="6.827" class="fil0" rx=".853" ry=".853"/><path d="M1.45551 0.853331l2.93806 0 0 0.908937 0 0.0554409 0.0556535 -3.93701e-006 0.901941 -7.87402e-006 0 4.15563 -3.89565 0 0 -5.12zm0.584189 2.86622l0.407709 0 0.219492 -0.819157 0.2025 -0.00958268 0.462776 1.238 0.335937 -1.28129 0.205835 -0.000834646 0.237421 0.886067 0.701665 0 0 0.213339 -0.78337 0 -0.0817047 0 -0.0212126 -0.0791693 -0.154709 -0.577382 -0.319114 1.21712 -0.2025 0.0104173 -0.463732 -1.24056 -0.154661 0.577205 -0.0212126 0.0791693 -0.0817047 0 -0.489413 0 0 -0.213339zm2.46518 -2.84295l0.83022 0.83022 -0.83022 7.87402e-006 0 -0.830228z" class="fil1"/></g></svg>